<svg xmlns="http://www.w3.org/2000/svg" viewBox="0 0 512 512">
  <defs>
    <linearGradient id="grad" x1="0%" y1="0%" x2="100%" y2="100%">
      <stop offset="0%" style="stop-color:#2563eb;stop-opacity:1" />
      <stop offset="100%" style="stop-color:#1e40af;stop-opacity:1" />
    </linearGradient>
  </defs>
  <rect width="512" height="512" rx="80" fill="url(#grad)"/>
  <g fill="white">
    <!-- 書類アイコン -->
    <path d="M160 100 h200 l60 60 v252 a20 20 0 0 1 -20 20 h-240 a20 20 0 0 1 -20 -20 v-292 a20 20 0 0 1 20 -20 z" fill="none" stroke="white" stroke-width="16"/>
    <path d="M360 100 v60 h60 z" stroke="white" stroke-width="8"/>
    <!-- チェックマーク -->
    <path d="M200 250 l40 40 l80 -80" fill="none" stroke="white" stroke-width="20" stroke-linecap="round"/>
    <!-- 星 -->
    <circle cx="380" cy="360" r="50" fill="#f59e0b"/>
    <path d="M380 330 l8 24 h26 l-21 15 l8 24 l-21 -15 l-21 15 l8 -24 l-21 -15 h26 z" fill="white"/>
  </g>
</svg>
